<svg width="17" height="12" viewBox="0 0 17 12" fill="none" xmlns="http://www.w3.org/2000/svg">
<path d="M13.5 3L10.5 6H12.75C12.75 7.19347 12.2759 8.33807 11.432 9.18198C10.5881 10.0259 9.44347 10.5 8.25 10.5C7.5 10.5 6.7725 10.3125 6.15 9.975L5.055 11.07C5.9775 11.655 7.0725 12 8.25 12C9.8413 12 11.3674 11.3679 12.4926 10.2426C13.6179 9.11742 14.25 7.5913 14.25 6H16.5M3.75 6C3.75 4.80653 4.22411 3.66193 5.06802 2.81802C5.91193 1.97411 7.05653 1.5 8.25 1.5C9 1.5 9.7275 1.6875 10.35 2.025L11.445 0.93C10.5225 0.345 9.4275 0 8.25 0C6.6587 0 5.13258 0.632141 4.00736 1.75736C2.88214 2.88258 2.25 4.4087 2.25 6H0L3 9L6 6" fill="black"/>
</svg>
